<?xml version="1.0" encoding="UTF-8" standalone="no"?>
<!-- Created with Inkscape (http://www.inkscape.org/) -->

<svg
   xmlns:dc="http://purl.org/dc/elements/1.1/"
   xmlns:cc="http://creativecommons.org/ns#"
   xmlns:rdf="http://www.w3.org/1999/02/22-rdf-syntax-ns#"
   xmlns:svg="http://www.w3.org/2000/svg"
   xmlns="http://www.w3.org/2000/svg"
   xmlns:sodipodi="http://sodipodi.sourceforge.net/DTD/sodipodi-0.dtd"
   xmlns:inkscape="http://www.inkscape.org/namespaces/inkscape"
   width="343"
   height="80"
   viewBox="0 0 90.752086 21.166667"
   version="1.1"
   id="svg1202"
   inkscape:version="0.92.2 (30a58d1, 2017-08-07)"
   sodipodi:docname="findyourfilm.svg"
   inkscape:export-filename="/home/pawel/PROGRAMOWANIE/cv_pawel/src/components/cv-page/main/portfolio/images/findyourfilm.png"
   inkscape:export-xdpi="96"
   inkscape:export-ydpi="96">
  <defs
     id="defs1196">
    <inkscape:path-effect
       bendpath3-nodetypes="cc"
       bendpath1-nodetypes="cc"
       bendpath4="m 11.64625,-104.36785 v 27.239997"
       bendpath3="m 11.64625,-77.127853 c 38.164896,46.627387 69.99204,40.395173 97.72312,0"
       bendpath2="m 109.36937,-104.36785 v 27.239997"
       bendpath1="m 11.64625,-104.36785 c 32.183757,-36.8068 64.602834,-51.44005 97.72312,0"
       xx="false"
       yy="true"
       is_visible="true"
       id="path-effect3399"
       effect="envelope" />
    <inkscape:path-effect
       effect="envelope"
       id="path-effect1303"
       is_visible="true"
       yy="true"
       xx="false"
       bendpath1="m 11.64625,-104.36785 c 32.183757,-36.8068 64.602834,-51.44005 97.72312,0"
       bendpath2="m 109.36937,-104.36785 v 27.239997"
       bendpath3="m 11.64625,-77.127853 c 38.164896,46.627387 69.99204,40.395173 97.72312,0"
       bendpath4="m 11.64625,-104.36785 v 27.239997"
       bendpath1-nodetypes="cc"
       bendpath3-nodetypes="cc" />
    <inkscape:path-effect
       effect="envelope"
       id="path-effect1305"
       is_visible="true"
       yy="true"
       xx="true"
       bendpath1="m 50.865,-104.36785 h 23.92"
       bendpath2="m 74.785,-104.36785 v 27.239997"
       bendpath3="m 50.865,-77.127853 h 23.92"
       bendpath4="m 50.865,-104.36785 v 27.239997" />
    <inkscape:path-effect
       bendpath3-nodetypes="cc"
       bendpath1-nodetypes="cc"
       bendpath4="M 4428.822,-12.148834 V 11.938824"
       bendpath3="m 4418.0278,20.400413 c 38.9933,47.185456 71.9686,30.496067 91.4642,-8.461589"
       bendpath2="m 4501.6706,-26.674311 7.8214,38.613135"
       bendpath1="m 4425.103,-16.332731 c 38.5812,-37.942086 47.4296,-24.631142 88.5729,4.648774"
       xx="false"
       yy="true"
       is_visible="true"
       id="path-effect7000"
       effect="envelope"
       bendpath2-nodetypes="cc" />
    <inkscape:path-effect
       effect="envelope"
       id="path-effect8089"
       is_visible="true"
       yy="true"
       xx="true"
       bendpath1="m 4481.5498,-11.978312 h 20.23"
       bendpath2="M 4501.7798,-11.978312 V 9.4237682"
       bendpath3="m 4481.5498,9.4237682 h 20.23"
       bendpath4="M 4481.5498,-11.978312 V 9.4237682" />
  </defs>
  <sodipodi:namedview
     id="base"
     pagecolor="#ffffff"
     bordercolor="#666666"
     borderopacity="1.0"
     inkscape:pageopacity="0.0"
     inkscape:pageshadow="2"
     inkscape:zoom="0.70000001"
     inkscape:cx="258.06991"
     inkscape:cy="-53.977123"
     inkscape:document-units="px"
     inkscape:current-layer="layer1"
     showgrid="false"
     units="px"
     inkscape:window-width="1366"
     inkscape:window-height="705"
     inkscape:window-x="0"
     inkscape:window-y="24"
     inkscape:window-maximized="1" />
  <metadata
     id="metadata1199">
    <rdf:RDF>
      <cc:Work
         rdf:about="">
        <dc:format>image/svg+xml</dc:format>
        <dc:type
           rdf:resource="http://purl.org/dc/dcmitype/StillImage" />
        <dc:title></dc:title>
      </cc:Work>
    </rdf:RDF>
  </metadata>
  <g
     inkscape:label="Layer 1"
     inkscape:groupmode="layer"
     id="layer1"
     transform="translate(0,-275.83332)">
    <g
       aria-label="FILM"
       transform="matrix(0.13473353,0,0,0.13473353,64.016,298.69771)"
       style="font-style:normal;font-variant:normal;font-weight:normal;font-stretch:normal;font-size:40px;line-height:1.25;font-family:'URW Bookman L';-inkscape-font-specification:'URW Bookman L, Normal';font-variant-ligatures:normal;font-variant-caps:normal;font-variant-numeric:normal;font-feature-settings:normal;text-align:start;letter-spacing:0px;word-spacing:0px;writing-mode:lr-tb;text-anchor:start;opacity:0.95;fill:#ffffff;fill-opacity:1;stroke:#ffffff;stroke-width:5.00953325;stroke-miterlimit:4;stroke-dasharray:none;stroke-opacity:1;filter:url(#filter1104)"
       id="flowRoot1088">
      <path
         style="fill:#ffffff;fill-opacity:1;stroke:#ffffff;stroke-width:5.00953325;stroke-miterlimit:4;stroke-dasharray:none;stroke-opacity:1"
         d="m 32.358288,-124.18322 c -7.538647,5.86262 -14.248769,12.75967 -20.563325,19.9333 0.626225,0.4216 1.223835,0.84275 1.792828,1.26342 0.338838,-0.2552 0.677821,-0.50702 1.016986,-0.75543 1.961552,-1.3791 4.12728,-1.02294 7.054855,3.32395 4.470799,6.638284 4.416944,13.215303 -0.161567,19.731059 -2.999453,4.268572 -5.163697,4.56544 -7.068163,3.128733 -0.329192,-0.258476 -0.65785,-0.520539 -0.985993,-0.786145 -0.573798,0.402057 -1.176211,0.803648 -1.80724,1.204773 3.159121,3.860139 6.463784,7.636839 9.973017,11.195326 0.589451,-0.742443 1.152396,-1.485085 1.688835,-2.227928 -0.343257,-0.442218 -0.683787,-0.883538 -1.021619,-1.32352 -1.748037,-2.332456 -0.352216,-3.802093 2.523001,-8.940559 2.258789,-4.036812 3.398607,-8.085405 3.419454,-12.145779 0.718176,-7.95e-4 1.439309,-0.0022 2.164127,-0.0043 1.59934,-0.0046 2.682711,0.840154 3.22041,3.00928 0.319203,1.326209 0.502149,3.41132 -0.290383,7.525693 0.354103,0.13443 0.709583,0.267579 1.066514,0.399373 2.025678,-8.448355 1.773766,-16.904745 -0.755737,-25.369166 -0.364225,0.17866 -0.727027,0.35854 -1.088482,0.53957 0.935647,3.56564 1.030335,5.550474 0.946246,6.867137 -0.204222,2.847944 -1.193628,3.772675 -3.235921,4.068139 -0.727264,0.105214 -1.450859,0.210946 -2.171516,0.317164 -0.366499,-3.203115 -1.427602,-6.413543 -3.183309,-9.63129 -1.57432,-2.8853 -2.30744,-3.92419 -2.463945,-5.22532 -0.156763,-1.30328 0.738557,-3.06409 2.356735,-4.47114 4.188445,-3.64196 10.091485,-3.27703 15.504621,6.27656 0.28265,-0.69985 0.563946,-1.41325 0.84485,-2.14022 -2.162664,-5.63605 -5.051808,-10.89324 -8.775279,-15.76273 z"
         id="path1294"
         inkscape:connector-curvature="0" />
      <path
         style="fill:#ffffff;fill-opacity:1;stroke:#ffffff;stroke-width:5.00953325;stroke-miterlimit:4;stroke-dasharray:none;stroke-opacity:1"
         d="m 48.324614,-114.56093 c -1.685436,-10.19987 -2.326772,-12.31026 0.06084,-14.66951 0.273451,-0.25324 0.549004,-0.50482 0.826675,-0.75449 -0.274917,-1.30665 -0.563969,-2.61302 -0.867157,-3.91911 -2.994689,1.26722 -5.885958,2.82367 -8.65731,4.56093 -1.218055,0.76309 -2.41286,1.56099 -3.583036,2.38446 0.462095,1.10342 0.902757,2.20694 1.321985,3.31056 0.316916,-0.0747 0.63416,-0.14634 0.951699,-0.21483 1.91106,-0.33497 3.174346,0.60681 4.605805,5.0967 0,0 0,0 0,0 0.471455,1.47982 0.973525,3.41181 1.455053,5.7636 3.057959,14.935096 2.948151,29.883255 -0.329424,44.844477 -0.516115,2.355925 -1.046798,4.293202 -1.540746,5.779044 0,0 -10e-7,10e-7 -10e-7,10e-7 -1.498919,4.502156 -2.783937,5.46633 -4.708042,5.157403 -0.319681,-0.06416 -0.639136,-0.131774 -0.958376,-0.202851 -0.436725,1.107403 -0.894882,2.2149 -1.374474,3.322492 1.173034,0.807678 2.368744,1.583964 3.588515,2.325701 2.77583,1.687971 5.708198,3.170021 8.745325,4.351162 0.317847,-1.318327 0.621557,-2.636375 0.911133,-3.954144 -0.280367,-0.241578 -0.558557,-0.485092 -0.834559,-0.730295 -2.405768,-2.28649 -1.740583,-4.421184 0.07642,-14.664695 2.832245,-15.967013 2.93547,-31.895881 0.309673,-47.786605 z"
         id="path1296"
         inkscape:connector-curvature="0" />
      <path
         style="fill:#ffffff;fill-opacity:1;stroke:#ffffff;stroke-width:5.00953325;stroke-miterlimit:4;stroke-dasharray:none;stroke-opacity:1"
         d="m 77.355581,-76.032127 c -0.382194,-0.420726 -0.758172,-0.852769 -1.128359,-1.295883 -0.810509,8.931571 -0.848291,11.696722 -1.950093,16.520769 -0.794221,3.552263 -1.898311,6.37235 -3.307865,8.296906 -1.095665,1.497176 -2.343506,2.383905 -3.612306,2.56082 -1.219267,0.170008 -2.34732,-0.573637 -3.04173,-1.879576 0,0 0,-1e-6 0,-1e-6 -0.197129,-0.368721 -0.358979,-0.781182 -0.480897,-1.229721 -0.37186,-1.368083 -0.52534,-4.056235 -0.509484,-8.162715 0.07263,-18.809859 0.152998,-37.627617 0.2411,-56.453272 0.03259,-6.96322 0.266951,-10.81832 1.09963,-12.91258 0,0 0,0 0,0 0.486188,-1.21868 1.172717,-1.80763 2.095073,-1.98427 0.519143,-0.0933 1.040896,-0.17455 1.564645,-0.24342 0.115189,-1.40092 0.235826,-2.802 0.361912,-4.20323 -1.281791,-0.17133 -2.573212,-0.27069 -3.86614,-0.29841 -1.550658,-0.0325 -3.10389,0.038 -4.645679,0.21109 -2.114265,0.23686 -4.19316,0.65639 -6.232058,1.22821 0.203282,1.36514 0.397026,2.73049 0.581232,4.09603 0.410133,0.0265 0.819242,0.0597 1.227257,0.1 2.543855,0.3503 3.452232,3.22328 3.938618,14.27522 0.779636,17.715315 0.705544,35.435829 -0.222275,53.16154 -0.578649,11.054917 -1.50983,13.94642 -4.076954,14.368339 -0.412179,0.05179 -0.825881,0.09693 -1.240968,0.135456 -0.196704,1.373558 -0.402946,2.747316 -0.618725,4.121275 2.059135,0.509386 4.14961,0.864987 6.256902,1.040163 0,0 10e-7,0 10e-7,0 1.536956,0.127765 3.082858,0.159552 4.632073,0.08502 2.525664,-0.121501 5.017425,-0.526591 7.451566,-1.169191 0,0 10e-7,0 10e-7,0 2.662235,-0.702816 5.255545,-1.68974 7.748898,-2.900487 -1.213987,-9.563881 -2.124013,-18.662041 -2.265375,-27.468056 z"
         id="path1298"
         inkscape:connector-curvature="0" />
      <path
         style="fill:#ffffff;fill-opacity:1;stroke:#ffffff;stroke-width:5.00953325;stroke-miterlimit:4;stroke-dasharray:none;stroke-opacity:1"
         d="m 94.773571,-59.467247 c -8.18296,-22.076985 -8.141984,-38.398877 4.729132,-48.505943 -7.807044,9.758946 -8.87168,19.615705 -3.193908,29.570275 3.158053,5.536865 4.560875,6.709762 3.06013,9.421889 -0.216503,0.370255 -0.435136,0.741918 -0.655951,1.114732 0.572691,0.775766 1.174161,1.551936 1.804406,2.328512 3.1758,-3.671472 6.09837,-7.579674 8.84343,-11.577599 -0.68826,-0.42231 -1.34531,-0.844159 -1.97115,-1.265546 -0.30306,0.283407 -0.60678,0.562981 -0.91117,0.838671 -1.7563,1.523386 -3.98988,1.231754 -7.249923,-3.23709 -4.948877,-6.783882 -4.962727,-13.494965 -0.04155,-20.133244 3.245413,-4.37781 5.459283,-4.59285 7.161233,-3.02319 0.29554,0.28437 0.59031,0.57245 0.88434,0.86415 0.62059,-0.40296 1.2724,-0.80547 1.95541,-1.20751 -2.14973,-3.31526 -4.41731,-6.59037 -6.85015,-9.72746 -13.072453,8.72354 -16.985625,21.846688 -14.368808,39.047248 -6.567847,-13.92999 -5.936732,-30.707118 -1.152555,-50.277148 0.284202,-1.16141 0.582298,-2.33102 0.893497,-3.50916 -1.029821,-0.7657 -2.085975,-1.49835 -3.170087,-2.19458 -2.314759,-1.48688 -4.761913,-2.78036 -7.312903,-3.80419 -0.314696,1.32696 -0.615398,2.65392 -0.902105,3.98089 0.350957,0.27419 0.697866,0.55302 1.040719,0.83602 2.323712,2.04422 1.583984,4.65416 -0.268022,14.79406 -2.929615,16.0399 -3.019404,32.101782 -0.269367,48.185645 1.713875,10.023772 2.459197,13.083483 0.106469,14.837357 -0.434179,0.32173 -0.873517,0.637323 -1.317908,0.946046 0.266862,1.330413 0.547452,2.66082 0.84177,3.991221 2.652053,-1.045924 5.211501,-2.356665 7.64429,-3.866068 1.257113,-0.779965 2.480406,-1.612975 3.665181,-2.489904 0.04452,-0.03295 0.08899,-0.06596 0.13342,-0.09901 -0.489128,-1.138021 -0.955722,-2.275822 -1.399783,-3.413404 -0.04672,0.02002 -0.09346,0.03997 -0.140229,0.05984 -0.463983,0.196279 -0.931123,0.384531 -1.401119,0.56455 -1.207083,0.419578 -2.237329,-0.09291 -3.276001,-2.107641 -0.89495,-1.740228 -1.874385,-4.80794 -2.761097,-9.279703 -3.74522,-18.887447 -2.809029,-37.723419 2.808573,-56.507899 -0.216089,1.33711 -0.419102,2.66472 -0.607689,3.98338 -1.363749,9.61966 -1.924426,18.67661 -1.254392,27.239347 1.06706,13.258147 5.079913,25.02028 13.196895,35.212438 0.576865,-0.521287 1.145751,-1.051484 1.706972,-1.589978 z"
         id="path1300"
         inkscape:connector-curvature="0" />
    </g>
    <g
       aria-label="your"
       transform="matrix(0.12693985,0,0,0.15364221,87.851022,265.50445)"
       style="font-style:normal;font-variant:normal;font-weight:normal;font-stretch:normal;font-size:40px;line-height:1.25;font-family:'URW Gothic L';-inkscape-font-specification:'URW Gothic L, Normal';font-variant-ligatures:normal;font-variant-caps:normal;font-variant-numeric:normal;font-feature-settings:normal;text-align:start;letter-spacing:0px;word-spacing:0px;writing-mode:lr-tb;text-anchor:start;fill:#ffffff;fill-opacity:1;stroke:#ffffff;stroke-width:2.5;stroke-miterlimit:4;stroke-dasharray:none;stroke-opacity:1"
       id="flowRoot822">
      <path
         inkscape:connector-curvature="0"
         d="m -296.86258,157.83686 h 3.16 l 12.64,-29.56 h -3.16 l -7.4,17.44 -6.92,-17.44 h -3.24 l 8.48,21.16 z"
         style="fill:#ffffff;stroke:#ffffff;stroke-opacity:1"
         id="path830" />
      <path
         inkscape:connector-curvature="0"
         d="m -267.57633,127.75686 c -6.48,0 -11.48,4.92 -11.48,11.32 0,6.72 4.92,11.6 11.72,11.6 6.4,0 11.12,-4.84 11.12,-11.4 0,-6.68 -4.8,-11.52 -11.36,-11.52 z m 0,2.72 c 4.8,0 8.36,3.76 8.36,8.84 0,5 -3.44,8.64 -8.2,8.64 -5.04,0 -8.64,-3.68 -8.64,-8.8 0,-4.96 3.64,-8.68 8.48,-8.68 z"
         style="fill:#ffffff;stroke:#ffffff;stroke-opacity:1"
         id="path832" />
      <path
         inkscape:connector-curvature="0"
         d="m -232.76445,128.27686 h -2.96 v 11.24 c 0,2.68 -0.4,4.36 -1.32,5.72 -1.24,1.72 -3.2,2.72 -5.48,2.72 -2.44,0 -4.52,-1 -5.52,-2.76 -0.68,-1.12 -1.04,-2.88 -1.04,-5.12 v -11.8 h -2.96 v 11.8 c 0,3.24 0.56,5.52 1.72,7.12 1.64,2.28 4.28,3.48 7.56,3.48 3.4,0 5.56,-1.2 7.04,-3.92 v 3.4 h 2.96 z"
         style="fill:#ffffff;stroke:#ffffff;stroke-opacity:1"
         id="path834" />
      <path
         inkscape:connector-curvature="0"
         d="m -227.74758,150.15686 h 2.96 v -12.76 c 0,-4.08 2.08,-6.32 6.2,-6.72 v -2.92 c -3.16,0.16 -5.04,1.24 -6.2,3.64 v -3.12 h -2.96 z"
         style="fill:#ffffff;stroke:#ffffff;stroke-opacity:1"
         id="path836" />
    </g>
    <g
       aria-label="FIND"
       transform="matrix(0.44154937,0,0,0.46252091,-58.610207,227.16664)"
       style="font-style:normal;font-variant:normal;font-weight:normal;font-stretch:normal;font-size:40px;line-height:1.25;font-family:sans-serif;-inkscape-font-specification:'Nimbus Sans L, Bold';font-variant-ligatures:normal;font-variant-caps:normal;font-variant-numeric:normal;font-feature-settings:normal;text-align:start;letter-spacing:0px;word-spacing:0px;writing-mode:lr-tb;text-anchor:start;fill:#ffffff;fill-opacity:1;stroke:#ffffff;stroke-width:3.93335581;stroke-miterlimit:4;stroke-dasharray:none;stroke-opacity:1"
       id="flowRoot837">
      <path
         inkscape:connector-curvature="0"
         d="m 146.35742,114.07031 h 16.75781 v 3.32032 h -12.8125 v 8.59375 h 11.5625 v 3.32031 h -11.5625 v 13.92578 h -3.94531 z"
         style="fill:#ffffff;stroke:#ffffff;stroke-opacity:1"
         id="path2339" />
      <path
         inkscape:connector-curvature="0"
         d="m 169.4043,114.07031 h 3.94531 v 29.16016 h -3.94531 z"
         style="fill:#ffffff;stroke:#ffffff;stroke-opacity:1"
         id="path2341" />
      <path
         inkscape:connector-curvature="0"
         d="m 181.20117,114.07031 h 5.3125 l 12.92969,24.39453 v -24.39453 h 3.82812 v 29.16016 h -5.3125 L 185.0293,118.83594 v 24.39453 h -3.82813 z"
         style="fill:#ffffff;stroke:#ffffff;stroke-opacity:1"
         id="path2343" />
      <path
         inkscape:connector-curvature="0"
         d="m 215.06836,117.3125 v 22.67578 h 4.76562 q 6.03516,0 8.82813,-2.73437 2.8125,-2.73438 2.8125,-8.63282 0,-5.85937 -2.8125,-8.57421 -2.79297,-2.73438 -8.82813,-2.73438 z m -3.94531,-3.24219 h 8.10547 q 8.47656,0 12.4414,3.53516 3.96485,3.51562 3.96485,11.01562 0,7.53907 -3.98438,11.07422 -3.98437,3.53516 -12.42187,3.53516 h -8.10547 z"
         style="fill:#ffffff;stroke:#ffffff;stroke-opacity:1"
         id="path2345" />
    </g>
    <path
       style="opacity:0.95;fill:none;fill-opacity:1;fill-rule:evenodd;stroke:#ffffff;stroke-width:3.12697458;stroke-linecap:square;stroke-linejoin:miter;stroke-miterlimit:4;stroke-dasharray:none;stroke-dashoffset:0;stroke-opacity:1;paint-order:markers stroke fill"
       d="m 81.141685,286.6376 a 8.9049242,8.9049242 0 0 1 -8.904923,8.90492 8.9049242,8.9049242 0 0 1 -8.904924,-8.90492 8.9049242,8.9049242 0 0 1 8.904924,-8.90494 8.9049242,8.9049242 0 0 1 8.904923,8.90494 z"
       id="path3340"
       inkscape:connector-curvature="0" />
    <path
       style="opacity:0.95;fill:#ffffff;fill-opacity:1;fill-rule:evenodd;stroke:#ffffff;stroke-width:2.07010005;stroke-linecap:square;stroke-linejoin:miter;stroke-miterlimit:4;stroke-dasharray:none;stroke-dashoffset:0;stroke-opacity:1;paint-order:markers stroke fill"
       d="m 80.873772,292.58385 0.382263,-0.55251 4.608479,3.03877 -0.382264,0.55252 z"
       id="rect3342"
       inkscape:connector-curvature="0" />
  </g>
</svg>
