<?xml version="1.0" encoding="UTF-8" standalone="no"?>
<!-- Created with Inkscape (http://www.inkscape.org/) -->

<svg
   xmlns:dc="http://purl.org/dc/elements/1.1/"
   xmlns:cc="http://creativecommons.org/ns#"
   xmlns:rdf="http://www.w3.org/1999/02/22-rdf-syntax-ns#"
   xmlns:svg="http://www.w3.org/2000/svg"
   xmlns="http://www.w3.org/2000/svg"
   xmlns:sodipodi="http://sodipodi.sourceforge.net/DTD/sodipodi-0.dtd"
   xmlns:inkscape="http://www.inkscape.org/namespaces/inkscape"
   width="400mm"
   height="80mm"
   viewBox="0 0 400 80"
   version="1.1"
   id="svg8"
   inkscape:version="0.92.1 15371"
   sodipodi:docname="ultraTreningLogo1White.svg"
   inkscape:export-filename="/home/pawel/Pulpit/ultraTreningLogo1.png"
   inkscape:export-xdpi="96"
   inkscape:export-ydpi="96">
  <defs
     id="defs2" />
  <sodipodi:namedview
     id="base"
     pagecolor="#ffffff"
     bordercolor="#666666"
     borderopacity="1.0"
     inkscape:pageopacity="0.0"
     inkscape:pageshadow="2"
     inkscape:zoom="0.5"
     inkscape:cx="782.88939"
     inkscape:cy="228.17662"
     inkscape:document-units="px"
     inkscape:current-layer="layer1"
     showgrid="false"
     showborder="true"
     inkscape:window-width="1366"
     inkscape:window-height="705"
     inkscape:window-x="0"
     inkscape:window-y="24"
     inkscape:window-maximized="1"
     borderlayer="true"
     inkscape:showpageshadow="false" />
  <metadata
     id="metadata5">
    <rdf:RDF>
      <cc:Work
         rdf:about="">
        <dc:format>image/svg+xml</dc:format>
        <dc:type
           rdf:resource="http://purl.org/dc/dcmitype/StillImage" />
        <dc:title></dc:title>
      </cc:Work>
    </rdf:RDF>
  </metadata>
  <g
     inkscape:label="Layer 1"
     inkscape:groupmode="layer"
     id="layer1"
     transform="translate(0,-217)">
    <g
       id="g6877">
      <g
         id="g6872" />
    </g>
    <path
       style="color:#000000;font-style:normal;font-variant:normal;font-weight:normal;font-stretch:normal;font-size:medium;line-height:normal;font-family:sans-serif;font-variant-ligatures:normal;font-variant-position:normal;font-variant-caps:normal;font-variant-numeric:normal;font-variant-alternates:normal;font-feature-settings:normal;text-indent:0;text-align:start;text-decoration:none;text-decoration-line:none;text-decoration-style:solid;text-decoration-color:#000000;letter-spacing:normal;word-spacing:normal;text-transform:none;writing-mode:lr-tb;direction:ltr;text-orientation:mixed;dominant-baseline:auto;baseline-shift:baseline;text-anchor:start;white-space:normal;shape-padding:0;clip-rule:nonzero;display:inline;overflow:visible;visibility:visible;opacity:1;isolation:auto;mix-blend-mode:normal;color-interpolation:sRGB;color-interpolation-filters:linearRGB;solid-color:#000000;solid-opacity:1;vector-effect:none;fill:#ffffff;fill-opacity:1;fill-rule:nonzero;stroke:none;stroke-width:24.48099136;stroke-linecap:butt;stroke-linejoin:miter;stroke-miterlimit:4;stroke-dasharray:none;stroke-dashoffset:9.99999905;stroke-opacity:1;paint-order:markers stroke fill;color-rendering:auto;image-rendering:auto;shape-rendering:auto;text-rendering:auto;enable-background:accumulate"
       d="M 84.570312 86.207031 C 68.50917 108.48408 59.03125 135.8031 59.03125 165.28906 C 59.03125 232.13152 107.71396 287.85538 171.46875 298.86914 L 217.71875 298.86914 C 281.47355 287.85538 330.1582 232.13152 330.1582 165.28906 C 330.1582 135.8031 320.68028 108.48408 304.61914 86.207031 L 272.70703 86.207031 C 293.07774 106.32843 305.67969 134.29472 305.67969 165.28906 C 305.67969 226.78315 256.08781 276.36719 194.59375 276.36719 C 133.0997 276.36719 83.515625 226.78315 83.515625 165.28906 C 83.515625 134.29485 96.11587 106.32841 116.48438 86.207031 L 84.570312 86.207031 z "
       transform="matrix(0.26458333,0,0,0.26458333,0,217)"
       id="path6906" />
    <path
       inkscape:connector-curvature="0"
       style="opacity:1;fill:#ffffff;fill-opacity:1;fill-rule:nonzero;stroke:none;stroke-width:1.95704162;stroke-miterlimit:4;stroke-dasharray:none;stroke-dashoffset:9.99999905;stroke-opacity:1;paint-order:markers stroke fill"
       d="m 61.345122,260.73228 a 9.8585836,9.8585836 0 0 1 -9.858585,9.85859 9.8585836,9.8585836 0 0 1 -9.858585,-9.85859 9.8585836,9.8585836 0 0 1 9.858585,-9.85858 9.8585836,9.8585836 0 0 1 9.858585,9.85858 z"
       id="circle6929" />
    <path
       inkscape:connector-curvature="0"
       style="opacity:1;fill:#ffffff;fill-opacity:1;fill-rule:nonzero;stroke:none;stroke-width:3.96158814;stroke-miterlimit:4;stroke-dasharray:none;stroke-dashoffset:9.99999905;stroke-opacity:1;paint-order:markers stroke fill"
       d="m 29.697832,224.78716 4.592877,-3.35469 21.650223,41.14874 -4.592877,3.35469 z"
       id="rect6958" />
    <path
       style="opacity:1;fill:#ffffff;fill-opacity:1;fill-rule:nonzero;stroke:none;stroke-width:3.90737963;stroke-miterlimit:4;stroke-dasharray:none;stroke-dashoffset:9.99999905;stroke-opacity:1;paint-order:markers stroke fill"
       d="m 29.697832,224.78716 -0.196238,-5.46141 33.853132,0.83646 9.435926,6.71561 -7.462248,4.69258 -14.503593,7.79028 9.835107,-13.53054 -14.795632,-0.62475 z"
       id="rect7053"
       inkscape:connector-curvature="0"
       sodipodi:nodetypes="ccccccccc" />
    <g
       aria-label="LTRA TRENING"
       style="font-style:normal;font-weight:normal;font-size:10.58333302px;line-height:1.25;font-family:sans-serif;letter-spacing:0px;word-spacing:0px;fill:#ffffff;fill-opacity:1;stroke:none;stroke-width:0.26458332"
       id="text4551"
       transform="matrix(1.1038279,0,0,1.1038279,177.04685,92.53048)">
      <path
         inkscape:connector-curvature="0"
         d="m -77.0255,173.70418 h 15.409334 l 1.016,-5.588 h -9.609667 l 4.783667,-25.69634 h -5.799667 z"
         style="font-style:oblique;font-variant:normal;font-weight:600;font-stretch:normal;font-size:42.33333588px;font-family:'URW Gothic L';-inkscape-font-specification:'URW Gothic L, Semi-Bold Oblique';font-variant-ligatures:normal;font-variant-caps:normal;font-variant-numeric:normal;font-feature-settings:normal;text-align:start;writing-mode:lr-tb;text-anchor:start;stroke-width:0.26458332;fill:#ffffff"
         id="path4553" />
      <path
         inkscape:connector-curvature="0"
         d="m -55.289316,173.70418 h 5.799667 l 4.783667,-25.69634 h 5.884334 l 1.016,-5.588 h -17.441335 l -1.016,5.588 h 5.757334 z"
         style="font-style:oblique;font-variant:normal;font-weight:600;font-stretch:normal;font-size:42.33333588px;font-family:'URW Gothic L';-inkscape-font-specification:'URW Gothic L, Semi-Bold Oblique';font-variant-ligatures:normal;font-variant-caps:normal;font-variant-numeric:normal;font-feature-settings:normal;text-align:start;writing-mode:lr-tb;text-anchor:start;stroke-width:0.26458332;fill:#ffffff"
         id="path4555" />
      <path
         inkscape:connector-curvature="0"
         d="m -40.645289,173.70418 h 5.799667 l 2.201333,-11.98034 6.011334,11.98034 h 7.154333 l -6.307667,-11.557 c 3.132667,-0.762 5.122334,-1.82034 6.858001,-3.64067 2.032,-2.11667 3.217333,-5.12233 3.217333,-8.21267 0,-2.20133 -0.677333,-4.064 -2.074333,-5.50333 -1.608667,-1.73567 -3.852334,-2.37067 -8.043334,-2.37067 h -9.017 z m 8.847667,-16.34067 1.735667,-9.35567 h 2.582333 c 2.159,0 3.598334,0.254 4.402667,0.71967 0.889,0.55033 1.439333,1.651 1.439333,2.921 0,1.27 -0.592666,2.83633 -1.439333,3.81 -1.185333,1.397 -2.709334,1.905 -5.884334,1.905 z"
         style="font-style:oblique;font-variant:normal;font-weight:600;font-stretch:normal;font-size:42.33333588px;font-family:'URW Gothic L';-inkscape-font-specification:'URW Gothic L, Semi-Bold Oblique';font-variant-ligatures:normal;font-variant-caps:normal;font-variant-numeric:normal;font-feature-settings:normal;text-align:start;writing-mode:lr-tb;text-anchor:start;stroke-width:0.26458332;fill:#ffffff"
         id="path4557" />
      <path
         inkscape:connector-curvature="0"
         d="m -18.670982,173.70418 h 6.392333 l 4.9530007,-8.08567 H 3.808019 l 1.8626668,8.08567 H 12.06302 L 4.7393524,142.41984 H 0.16735214 Z m 14.5203339,-13.67367 5.08000029,-9.44033 1.60866681,9.44033 z"
         style="font-style:oblique;font-variant:normal;font-weight:600;font-stretch:normal;font-size:42.33333588px;font-family:'URW Gothic L';-inkscape-font-specification:'URW Gothic L, Semi-Bold Oblique';font-variant-ligatures:normal;font-variant-caps:normal;font-variant-numeric:normal;font-feature-settings:normal;text-align:start;writing-mode:lr-tb;text-anchor:start;stroke-width:0.26458332;fill:#ffffff"
         id="path4559" />
      <path
         inkscape:connector-curvature="0"
         d="m 30.204182,173.70418 h 5.799667 l 4.783667,-25.69634 h 5.884334 l 1.016,-5.588 H 30.246515 l -1.016,5.588 h 5.757334 z"
         style="font-style:oblique;font-variant:normal;font-weight:600;font-stretch:normal;font-size:42.33333588px;font-family:'URW Gothic L';-inkscape-font-specification:'URW Gothic L, Semi-Bold Oblique';font-variant-ligatures:normal;font-variant-caps:normal;font-variant-numeric:normal;font-feature-settings:normal;text-align:start;writing-mode:lr-tb;text-anchor:start;stroke-width:0.26458332;fill:#ffffff"
         id="path4561" />
      <path
         inkscape:connector-curvature="0"
         d="m 44.848203,173.70418 h 5.799667 l 2.201333,-11.98034 6.011334,11.98034 h 7.154334 l -6.307667,-11.557 c 3.132666,-0.762 5.122333,-1.82034 6.858,-3.64067 2.032,-2.11667 3.217333,-5.12233 3.217333,-8.21267 0,-2.20133 -0.677333,-4.064 -2.074333,-5.50333 -1.608667,-1.73567 -3.852334,-2.37067 -8.043334,-2.37067 h -9.017 z m 8.847667,-16.34067 1.735667,-9.35567 h 2.582333 c 2.159,0 3.598334,0.254 4.402667,0.71967 0.889,0.55033 1.439333,1.651 1.439333,2.921 0,1.27 -0.592666,2.83633 -1.439333,3.81 -1.185333,1.397 -2.709333,1.905 -5.884334,1.905 z"
         style="font-style:oblique;font-variant:normal;font-weight:600;font-stretch:normal;font-size:42.33333588px;font-family:'URW Gothic L';-inkscape-font-specification:'URW Gothic L, Semi-Bold Oblique';font-variant-ligatures:normal;font-variant-caps:normal;font-variant-numeric:normal;font-feature-settings:normal;text-align:start;writing-mode:lr-tb;text-anchor:start;stroke-width:0.26458332;fill:#ffffff"
         id="path4563" />
      <path
         inkscape:connector-curvature="0"
         d="m 69.404843,173.70418 h 16.806335 l 1.016,-5.588 H 76.22051 l 1.354667,-7.239 h 10.541001 l 1.016,-5.588 H 78.591177 l 1.397,-7.28134 h 11.006668 l 1.016,-5.588 H 75.20451 Z"
         style="font-style:oblique;font-variant:normal;font-weight:600;font-stretch:normal;font-size:42.33333588px;font-family:'URW Gothic L';-inkscape-font-specification:'URW Gothic L, Semi-Bold Oblique';font-variant-ligatures:normal;font-variant-caps:normal;font-variant-numeric:normal;font-feature-settings:normal;text-align:start;writing-mode:lr-tb;text-anchor:start;stroke-width:0.26458332;fill:#ffffff"
         id="path4565" />
      <path
         inkscape:connector-curvature="0"
         d="m 91.398343,173.70418 h 5.799667 l 4.23333,-22.733 8.84767,22.733 h 6.477 l 5.79967,-31.28434 h -5.79967 l -4.23333,22.77534 -8.72067,-22.77534 h -6.604 z"
         style="font-style:oblique;font-variant:normal;font-weight:600;font-stretch:normal;font-size:42.33333588px;font-family:'URW Gothic L';-inkscape-font-specification:'URW Gothic L, Semi-Bold Oblique';font-variant-ligatures:normal;font-variant-caps:normal;font-variant-numeric:normal;font-feature-settings:normal;text-align:start;writing-mode:lr-tb;text-anchor:start;stroke-width:0.26458332;fill:#ffffff"
         id="path4567" />
      <path
         inkscape:connector-curvature="0"
         d="m 122.73492,173.70418 h 5.79967 l 5.79967,-31.28434 h -5.79967 z"
         style="font-style:oblique;font-variant:normal;font-weight:600;font-stretch:normal;font-size:42.33333588px;font-family:'URW Gothic L';-inkscape-font-specification:'URW Gothic L, Semi-Bold Oblique';font-variant-ligatures:normal;font-variant-caps:normal;font-variant-numeric:normal;font-feature-settings:normal;text-align:start;writing-mode:lr-tb;text-anchor:start;stroke-width:0.26458332;fill:#ffffff"
         id="path4569" />
      <path
         inkscape:connector-curvature="0"
         d="m 134.5585,173.70418 h 5.79967 l 4.23333,-22.733 8.84767,22.733 h 6.477 l 5.79966,-31.28434 h -5.79966 l -4.23334,22.77534 -8.72066,-22.77534 h -6.604 z"
         style="font-style:oblique;font-variant:normal;font-weight:600;font-stretch:normal;font-size:42.33333588px;font-family:'URW Gothic L';-inkscape-font-specification:'URW Gothic L, Semi-Bold Oblique';font-variant-ligatures:normal;font-variant-caps:normal;font-variant-numeric:normal;font-feature-settings:normal;text-align:start;writing-mode:lr-tb;text-anchor:start;stroke-width:0.26458332;fill:#ffffff"
         id="path4571" />
      <path
         inkscape:connector-curvature="0"
         d="m 179.18776,163.16318 h 12.954 c -2.286,3.429 -6.096,5.50333 -10.16,5.50333 -2.794,0 -5.12233,-0.84667 -6.731,-2.45533 -1.48167,-1.524 -2.45533,-3.937 -2.45533,-6.223 0,-2.37067 0.97366,-5.16467 2.62466,-7.40834 2.413,-3.302 6.096,-5.12233 10.32934,-5.12233 1.905,0 3.38666,0.42333 4.953,1.35467 1.143,0.67733 1.73566,1.27 2.667,2.794 h 6.81566 c -0.33866,-1.98967 -1.27,-3.76767 -2.96333,-5.54567 -2.54,-2.667 -6.35,-4.191 -10.541,-4.191 -10.37167,0 -19.812,9.10167 -19.812,19.13467 0,7.747 5.92667,13.25033 14.351,13.25033 5.67267,0 10.87967,-2.413 14.732,-6.77333 2.70933,-3.048 4.318,-6.43467 4.65667,-9.73667 h -20.40467 z"
         style="font-style:oblique;font-variant:normal;font-weight:600;font-stretch:normal;font-size:42.33333588px;font-family:'URW Gothic L';-inkscape-font-specification:'URW Gothic L, Semi-Bold Oblique';font-variant-ligatures:normal;font-variant-caps:normal;font-variant-numeric:normal;font-feature-settings:normal;text-align:start;writing-mode:lr-tb;text-anchor:start;stroke-width:0.26458332;fill:#ffffff"
         id="path4573" />
    </g>
  </g>
</svg>
